<svg xmlns="http://www.w3.org/2000/svg" viewBox="0 0 80 80"><defs><linearGradient id="b" x2="1" y2="1"><stop stop-color="#d9ae59"/><stop offset="1" stop-color="#8f692d"/></linearGradient></defs><circle cx="40" cy="40" r="39" fill="#112b21"/><circle cx="40" cy="40" r="36" fill="none" stroke="url(#b)"/><path d="M23 32c2-13 31-18 36 2-4-7-12-9-18-7-7 1-11 5-18 5Z" fill="#151716"/><circle cx="40" cy="36" r="15" fill="#d5a477"/><path d="M25 63c2-14 10-19 15-19s14 5 16 19" fill="#253e34"/><path d="M31 36c3-2 6-2 8 0m3 0c3-2 6-2 8 0M38 42c2 1 4 1 5 0" fill="none" stroke="#54382b" stroke-width="1.5" stroke-linecap="round"/><path d="M31 47c5 6 14 6 19 0-3 9-15 11-19 0Z" fill="#5a3529"/></svg>